<svg xmlns="http://www.w3.org/2000/svg" width="222.783" height="323.556" viewBox="0 0 167.087 242.667"><defs><linearGradient id="a"><stop offset="0"/><stop offset="1" stop-opacity=".656"/></linearGradient><linearGradient id="b"><stop offset="0" stop-color="#fff" stop-opacity=".534"/><stop offset="1" stop-opacity="0"/></linearGradient><linearGradient id="c"><stop offset="0" stop-color="#fff" stop-opacity=".519"/><stop offset="1" stop-opacity="0"/></linearGradient><linearGradient id="d"><stop offset="0" stop-color="#fff" stop-opacity=".702"/><stop offset="1" stop-opacity="0"/></linearGradient></defs><path d="M166.837 235.548c0 3.777-3.087 6.869-6.871 6.869H7.11c-3.775 0-6.861-3.092-6.861-6.87V7.12C.25 3.343 3.336.25 7.11.25h152.856c3.784 0 6.87 3.093 6.87 6.87v228.428z" fill="#fff" stroke-width=".5" stroke="#000"/><text style="line-height:125%" x="6.711" y="27.548" font-size="32" font-weight="400" letter-spacing="0" word-spacing="0" font-family="Bitstream Vera Sans"><tspan x="6.711" y="27.548" style="-inkscape-font-specification:Arial" font-family="Arial">A</tspan></text><path d="M20.69 43.74s3.53-2.823 3.53-6.736c0-2.291-2.035-6.094-6.737-6.094s-6.736 3.804-6.736 6.094c0 3.913 3.529 6.736 3.529 6.736-3.92-3.053-10.906-.969-10.906 5.133 0 3.054 2.496 6.415 6.415 6.415 4.702 0 6.736-5.133 6.736-5.133s.597 5.85-2.887 8.982h7.699c-3.484-3.13-2.887-8.982-2.887-8.982s2.034 5.133 6.736 5.133c3.92 0 6.415-3.362 6.415-6.415 0-6.102-6.987-8.186-10.906-5.133z"/><text style="line-height:125%" x="-160.464" y="-214.467" transform="scale(-1)" font-size="32" font-weight="400" letter-spacing="0" word-spacing="0" font-family="Bitstream Vera Sans"><tspan x="-160.464" y="-214.467" style="-inkscape-font-specification:Arial" font-family="Arial">A</tspan></text><path d="M146.484 198.74s-3.529 2.823-3.529 6.736c0 2.291 2.034 6.094 6.736 6.094s6.736-3.804 6.736-6.094c0-3.913-3.528-6.736-3.528-6.736 3.919 3.053 10.906.969 10.906-5.133 0-3.054-2.496-6.415-6.415-6.415-4.702 0-6.736 5.133-6.736 5.133s-.597-5.85 2.886-8.982h-7.698c3.484 3.13 2.886 8.982 2.886 8.982s-2.033-5.133-6.736-5.133c-3.92 0-6.415 3.362-6.415 6.415 0 6.102 6.987 8.186 10.907 5.133zM99.106 110.47s17.199-15.14 17.199-36.123c0-12.286-9.915-32.68-32.825-32.68-22.91 0-32.82 20.4-32.82 32.68 0 20.984 17.194 36.122 17.194 36.122-19.1-16.372-53.138-5.196-53.138 27.526 0 16.378 12.162 34.402 31.257 34.402 22.91 0 32.82-27.527 32.82-27.527s2.909 31.372-14.067 48.167h37.513c-16.976-16.785-14.067-48.167-14.067-48.167s9.91 27.527 32.82 27.527c19.1 0 31.256-18.03 31.256-34.402 0-32.722-34.043-43.898-53.138-27.526z"/></svg>