<svg xmlns="http://www.w3.org/2000/svg" width="222.783" height="323.556" viewBox="0 0 167.087 242.667"><defs><linearGradient id="a"><stop offset="0"/><stop offset="1" stop-opacity=".649"/></linearGradient><linearGradient id="b"><stop offset="0" stop-color="#fff" stop-opacity=".435"/><stop offset="1" stop-opacity="0"/></linearGradient><linearGradient id="c"><stop offset="0" stop-color="#fff" stop-opacity=".489"/><stop offset="1" stop-opacity="0"/></linearGradient><linearGradient id="d"><stop offset="0" stop-color="#fff" stop-opacity=".237"/><stop offset="1" stop-opacity="0"/></linearGradient></defs><path d="M166.837 235.548c0 3.777-3.087 6.869-6.871 6.869H7.11c-3.775 0-6.861-3.092-6.861-6.87V7.12C.25 3.343 3.336.25 7.11.25h152.856c3.784 0 6.87 3.093 6.87 6.87v228.428z" fill="#fff" stroke-width=".5" stroke="#000"/><text style="line-height:125%" x="6.246" y="28.013" font-size="32" font-weight="400" letter-spacing="0" word-spacing="0" font-family="Bitstream Vera Sans"><tspan x="6.246" y="28.013" style="-inkscape-font-specification:Arial" font-family="Arial">A</tspan></text><text style="line-height:125%" x="-160.908" y="-215.097" transform="scale(-1)" font-size="32" font-weight="400" letter-spacing="0" word-spacing="0" font-family="Bitstream Vera Sans"><tspan x="-160.908" y="-215.097" style="-inkscape-font-specification:Arial" font-family="Arial">A</tspan></text><path d="M28.981 49.346c-.365-5.596-11.687-16.128-12.052-18.763-.365 2.633-11.687 13.166-12.052 18.763-.255 3.956 2.557 5.596 5.114 5.596 2.769-.03 5.055-3.863 5.843-4.608.365.987-2.418 9.216-3.287 9.216h8.766c-.869 0-3.652-8.229-3.287-9.216.69.684 2.71 4.493 5.844 4.608 2.556-.001 5.366-1.64 5.111-5.596zM138.173 193.764c.365 5.596 11.687 16.128 12.052 18.763.365-2.633 11.687-13.166 12.052-18.763.255-3.956-2.557-5.596-5.114-5.596-2.769.03-5.055 3.863-5.843 4.608-.365-.987 2.418-9.216 3.287-9.216h-8.766c.869 0 3.652 8.229 3.287 9.216-.69-.684-2.711-4.493-5.844-4.608-2.556.001-5.366 1.64-5.111 5.596zM134.3 137.933c-1.527-23.394-48.859-67.423-50.385-78.44-1.526 11.008-48.858 55.042-50.384 78.44-1.066 16.539 10.69 23.395 21.38 23.395 11.575-.126 21.132-16.15 24.426-19.264 1.526 4.126-10.108 38.528-13.741 38.528h36.647c-3.633 0-15.268-34.402-13.742-38.528 2.885 2.86 11.33 18.783 24.431 19.264 10.686-.004 22.433-6.856 21.367-23.395z"/></svg>