<svg xmlns="http://www.w3.org/2000/svg" width="222.783" height="323.556" viewBox="0 0 167.087 242.667"><defs><linearGradient id="a"><stop offset="0" stop-color="#df0000"/><stop offset="1" stop-color="#df0000" stop-opacity=".672"/></linearGradient><linearGradient id="b"><stop offset="0" stop-color="#fff" stop-opacity=".313"/><stop offset="1" stop-opacity="0"/></linearGradient><linearGradient id="c"><stop offset="0" stop-color="#fff" stop-opacity=".29"/><stop offset="1" stop-opacity="0"/></linearGradient></defs><path d="M166.837 235.548c0 3.777-3.087 6.869-6.871 6.869H7.11c-3.775 0-6.861-3.092-6.861-6.87V7.12C.25 3.343 3.336.25 7.11.25h152.856c3.784 0 6.87 3.093 6.87 6.87v228.428z" fill="#fff" stroke-width=".5" stroke="#000"/><text style="line-height:125%" x="6.246" y="28.013" font-size="32" font-weight="400" letter-spacing="0" word-spacing="0" fill="#df0000" font-family="Bitstream Vera Sans"><tspan x="6.246" y="28.013" style="-inkscape-font-specification:Arial" font-family="Arial">A</tspan></text><path d="M23.332 32.282c-5.43 0-6.154 5.449-6.154 5.449s-.725-5.449-6.155-5.449c-3.8 0-7.24 2.443-7.24 7.052 0 6.09 11.016 12.213 13.395 21.154 2.263-8.934 13.394-15.065 13.394-21.154 0-4.609-3.44-7.052-7.24-7.052z" fill="#df0000"/><text style="line-height:125%" x="-161.088" y="-213.515" transform="scale(-1)" font-size="32" font-weight="400" letter-spacing="0" word-spacing="0" fill="#df0000" font-family="Bitstream Vera Sans"><tspan x="-161.088" y="-213.515" style="-inkscape-font-specification:Arial" font-family="Arial">A</tspan></text><path d="M144.001 209.246c5.43 0 6.155-5.448 6.155-5.448s.725 5.448 6.155 5.448c3.8 0 7.24-2.443 7.24-7.051 0-6.09-11.016-12.213-13.395-21.155-2.264 8.934-13.394 15.065-13.394 21.155 0 4.608 3.439 7.051 7.24 7.051zM108.232 64.78c-22.136 0-25.088 22.213-25.088 22.213S80.19 64.78 58.052 64.78c-15.49 0-29.515 9.959-29.515 28.748 0 24.827 44.909 49.789 54.607 86.238 9.226-36.42 54.603-61.415 54.603-86.238 0-18.789-14.024-28.748-29.515-28.748z" fill="#df0000"/></svg>