<svg xmlns="http://www.w3.org/2000/svg" width="222.783" height="323.556" viewBox="0 0 167.087 242.667"><defs><linearGradient id="b"><stop offset="0" stop-color="#df0000"/><stop offset="1" stop-color="#df0000" stop-opacity=".641"/></linearGradient><linearGradient id="a"><stop offset="0" stop-color="#fff" stop-opacity=".435"/><stop offset="1" stop-opacity="0"/></linearGradient></defs><path d="M166.837 235.548c0 3.777-3.087 6.869-6.871 6.869H7.11c-3.775 0-6.861-3.092-6.861-6.87V7.12C.25 3.343 3.336.25 7.11.25h152.856c3.784 0 6.87 3.093 6.87 6.87v228.428z" fill="#fff" stroke-width=".5" stroke="#000"/><text style="line-height:125%" x="6.246" y="28.013" font-size="32" font-weight="400" letter-spacing="0" word-spacing="0" fill="#df0000" font-family="Bitstream Vera Sans"><tspan x="6.246" y="28.013" style="-inkscape-font-specification:Arial" font-family="Arial">A</tspan></text><text style="line-height:125%" x="-161.088" y="-213.515" transform="scale(-1)" font-size="32" font-weight="400" letter-spacing="0" word-spacing="0" fill="#df0000" font-family="Bitstream Vera Sans"><tspan x="-161.088" y="-213.515" style="-inkscape-font-specification:Arial" font-family="Arial">A</tspan></text><path d="M21.758 37.257c-3.126-4.23-4.79-8.528-4.79-8.528s-1.663 4.298-4.79 8.528c-3.128 4.229-7.025 6.98-7.025 6.98s3.897 2.748 7.025 6.98c3.127 4.228 4.79 8.527 4.79 8.527s1.664-4.3 4.79-8.527c3.128-4.232 7.025-6.98 7.025-6.98s-3.897-2.751-7.025-6.98zM155.411 191.525c-3.127-4.23-4.79-8.53-4.79-8.53s-1.664 4.3-4.79 8.53c-3.128 4.228-7.025 6.978-7.025 6.978s3.897 2.75 7.025 6.98c3.126 4.23 4.79 8.528 4.79 8.528s1.663-4.299 4.79-8.527c3.128-4.232 7.025-6.98 7.025-6.98s-3.897-2.751-7.025-6.98zM101.587 88.764C88.99 71.718 82.284 54.399 82.284 54.399s-6.701 17.32-19.302 34.365c-12.605 17.04-28.309 28.126-28.309 28.126s15.704 11.074 28.309 28.127c12.6 17.037 19.302 34.36 19.302 34.36s6.706-17.327 19.303-34.36c12.605-17.053 28.308-28.127 28.308-28.127s-15.703-11.085-28.308-28.126z" fill="#df0000"/></svg>